<svg width="33" height="32" viewBox="0 0 33 32" fill="none" xmlns="http://www.w3.org/2000/svg">
<path d="M6.45332 23.0949C5.07999 21.6362 4.34265 20.0002 4.34265 17.3482C4.34265 12.6816 7.61865 8.49891 12.3827 6.43091L13.5733 8.26824C9.12665 10.6736 8.25732 13.7949 7.91065 15.7629C8.62665 15.3922 9.56398 15.2629 10.4827 15.3482C12.888 15.5709 14.784 17.5456 14.784 20.0002C14.784 21.2379 14.2923 22.4249 13.4172 23.3001C12.542 24.1752 11.355 24.6669 10.1173 24.6669C9.43286 24.6609 8.75643 24.5189 8.1274 24.249C7.49837 23.9791 6.9293 23.5868 6.45332 23.0949ZM19.7867 23.0949C18.4133 21.6362 17.676 20.0002 17.676 17.3482C17.676 12.6816 20.952 8.49891 25.716 6.43091L26.9067 8.26824C22.46 10.6736 21.5907 13.7949 21.244 15.7629C21.96 15.3922 22.8973 15.2629 23.816 15.3482C26.2213 15.5709 28.1173 17.5456 28.1173 20.0002C28.1173 21.2379 27.6257 22.4249 26.7505 23.3001C25.8753 24.1752 24.6883 24.6669 23.4507 24.6669C22.7662 24.6609 22.0898 24.5189 21.4607 24.249C20.8317 23.9791 20.2626 23.5868 19.7867 23.0949Z" fill="black" fill-opacity="0.8"/>
</svg>
