<svg width="25" height="24" viewBox="0 0 25 24" fill="none" xmlns="http://www.w3.org/2000/svg">
<path d="M21.343 21L17 16.657M17 16.657C17.7429 15.9141 18.3322 15.0322 18.7342 14.0616C19.1363 13.0909 19.3432 12.0506 19.3432 11C19.3432 9.94942 19.1363 8.90911 18.7342 7.93848C18.3322 6.96785 17.7429 6.08591 17 5.34302C16.2571 4.60014 15.3752 4.01084 14.4045 3.6088C13.4339 3.20675 12.3936 2.99982 11.343 2.99982C10.2924 2.99982 9.25206 3.20675 8.28143 3.6088C7.3108 4.01084 6.42887 4.60014 5.68598 5.34302C4.18565 6.84335 3.34277 8.87824 3.34277 11C3.34277 13.1218 4.18565 15.1567 5.68598 16.657C7.18631 18.1574 9.22119 19.0002 11.343 19.0002C13.4648 19.0002 15.4996 18.1574 17 16.657Z" stroke="black" stroke-opacity="0.5" stroke-width="2" stroke-linecap="round" stroke-linejoin="round"/>
</svg>
